<mxfile host="Electron" agent="Mozilla/5.0 (X11; Linux x86_64) AppleWebKit/537.36 (KHTML, like Gecko) draw.io/26.0.3 Chrome/130.0.6723.137 Electron/33.2.1 Safari/537.36" version="26.0.3">
  <diagram name="Page-1" id="QaaNRkdTFzj3QSEMWY4U">
    <mxGraphModel dx="1401" dy="385" grid="1" gridSize="10" guides="1" tooltips="1" connect="1" arrows="1" fold="1" page="1" pageScale="1" pageWidth="827" pageHeight="1169" math="0" shadow="0">
      <root>
        <mxCell id="0" />
        <mxCell id="1" parent="0" />
        <mxCell id="c7CVHGiVmJgYd2n3JN1E-3" value="Output" style="rounded=0;whiteSpace=wrap;html=1;fillColor=#dae8fc;strokeColor=#6c8ebf;verticalAlign=bottom;labelPosition=center;verticalLabelPosition=top;align=center;" parent="1" vertex="1">
          <mxGeometry x="150" y="18.51" width="90" height="51" as="geometry" />
        </mxCell>
        <mxCell id="c7CVHGiVmJgYd2n3JN1E-13" value="" style="endArrow=classic;html=1;rounded=0;" parent="1" edge="1">
          <mxGeometry width="50" height="50" relative="1" as="geometry">
            <mxPoint x="94" y="43" as="sourcePoint" />
            <mxPoint x="144" y="43" as="targetPoint" />
          </mxGeometry>
        </mxCell>
        <mxCell id="DNjhl6NehBOJsh1eZyic-1" value="buffer" style="rounded=1;whiteSpace=wrap;html=1;verticalAlign=bottom;labelPosition=center;verticalLabelPosition=top;align=left;" vertex="1" parent="1">
          <mxGeometry x="-14.5" y="28" width="104.5" height="30" as="geometry" />
        </mxCell>
        <mxCell id="DNjhl6NehBOJsh1eZyic-2" value="..." style="rounded=0;whiteSpace=wrap;html=1;" vertex="1" parent="1">
          <mxGeometry x="60" y="33" width="20" height="20" as="geometry" />
        </mxCell>
        <mxCell id="DNjhl6NehBOJsh1eZyic-3" value="" style="rounded=0;whiteSpace=wrap;html=1;fillColor=#d5e8d4;strokeColor=#82b366;labelPosition=center;verticalLabelPosition=middle;align=center;verticalAlign=middle;" vertex="1" parent="1">
          <mxGeometry x="-8" y="33" width="20" height="20" as="geometry" />
        </mxCell>
        <mxCell id="DNjhl6NehBOJsh1eZyic-4" value="M&lt;sub&gt;1&lt;/sub&gt;" style="ellipse;whiteSpace=wrap;html=1;aspect=fixed;fontSize=10;strokeWidth=1;spacing=0;verticalAlign=middle;fillColor=#d5e8d4;strokeColor=#82b366;" vertex="1" parent="1">
          <mxGeometry x="5" y="45.51" width="15" height="15" as="geometry" />
        </mxCell>
        <mxCell id="DNjhl6NehBOJsh1eZyic-5" value="" style="rounded=0;whiteSpace=wrap;html=1;fillColor=#ffe6cc;strokeColor=#d79b00;labelPosition=center;verticalLabelPosition=middle;align=center;verticalAlign=middle;" vertex="1" parent="1">
          <mxGeometry x="25.75" y="33" width="20" height="20" as="geometry" />
        </mxCell>
        <mxCell id="DNjhl6NehBOJsh1eZyic-6" value="M&lt;sub&gt;2&lt;/sub&gt;" style="ellipse;whiteSpace=wrap;html=1;aspect=fixed;fontSize=10;strokeWidth=1;spacing=0;verticalAlign=middle;fillColor=#ffe6cc;strokeColor=#d79b00;" vertex="1" parent="1">
          <mxGeometry x="35" y="45.51" width="15" height="15" as="geometry" />
        </mxCell>
        <mxCell id="DNjhl6NehBOJsh1eZyic-7" value="" style="endArrow=classic;html=1;rounded=0;" edge="1" parent="1">
          <mxGeometry width="50" height="50" relative="1" as="geometry">
            <mxPoint x="250" y="42.8" as="sourcePoint" />
            <mxPoint x="300" y="42.8" as="targetPoint" />
          </mxGeometry>
        </mxCell>
        <mxCell id="DNjhl6NehBOJsh1eZyic-8" value="File" style="whiteSpace=wrap;html=1;shape=mxgraph.basic.document" vertex="1" parent="1">
          <mxGeometry x="310" y="16.500000000000004" width="40" height="53.01" as="geometry" />
        </mxCell>
      </root>
    </mxGraphModel>
  </diagram>
</mxfile>
